<svg xmlns="http://www.w3.org/2000/svg" viewBox="0 0 640 360" width="640" height="360" role="img" aria-label="Data charts illustration">
  <defs>
    <linearGradient id="g1" x1="0" y1="0" x2="1" y2="1">
      <stop offset="0%" stop-color="#e8fbfc"/>
      <stop offset="100%" stop-color="#ffffff"/>
    </linearGradient>
  </defs>
  <rect x="0" y="0" width="640" height="360" rx="16" fill="url(#g1)"/>
  <rect x="60" y="70" width="220" height="130" rx="10" fill="#ffffff" stroke="#e5e7eb"/>
  <rect x="80" y="100" width="40" height="60" rx="6" fill="#0E898E" opacity="0.9"/>
  <rect x="130" y="115" width="40" height="45" rx="6" fill="#0E898E" opacity="0.7"/>
  <rect x="180" y="90" width="40" height="70" rx="6" fill="#0E898E" opacity="0.5"/>
  <rect x="230" y="120" width="40" height="40" rx="6" fill="#0E898E" opacity="0.3"/>

  <rect x="320" y="70" width="260" height="130" rx="10" fill="#ffffff" stroke="#e5e7eb"/>
  <path d="M340 170 C360 140, 380 130, 400 140 S 440 160, 460 125 S 500 140, 560 120" fill="none" stroke="#0E898E" stroke-width="3"/>

  <rect x="60" y="220" width="520" height="70" rx="10" fill="#ffffff" stroke="#e5e7eb"/>
  <rect x="80" y="240" width="140" height="30" rx="6" fill="#0E898E" opacity="0.15"/>
  <rect x="230" y="240" width="100" height="30" rx="6" fill="#0E898E" opacity="0.15"/>
  <rect x="340" y="240" width="120" height="30" rx="6" fill="#0E898E" opacity="0.15"/>
  <rect x="470" y="240" width="90" height="30" rx="6" fill="#0E898E" opacity="0.15"/>
</svg>

